<svg id="Layer_1" data-name="Layer 1" xmlns="http://www.w3.org/2000/svg" viewBox="0 0 857.3 94.15"><defs><style>.cls-1{fill:#4b55a5;}.cls-2{fill:#ed1c24;}</style></defs><title>SVG</title><path class="cls-1" d="M71.35,470.84h28.4V545h16.88V470.84H145V455.49H71.35Z" transform="translate(-71.35 -452.93)"/><path class="cls-1" d="M186.22,455.49,146.05,545h18.29L172,528.14h46.82L226.38,545H244.8l-40.16-89.54Zm-7.42,56.92,16.63-38.12,16.63,38.12Z" transform="translate(-71.35 -452.93)"/><polygon class="cls-1" points="199.29 2.56 182.41 2.56 182.41 92.1 245.34 92.1 245.34 76.49 199.29 76.49 199.29 2.56"/><rect class="cls-2" x="281.03" y="39.53" width="41.19" height="15.73"/><path class="cls-1" d="M328.34,545h67V528.4H345.09V471.86h50.27V455.49h-67Z" transform="translate(-71.35 -452.93)"/><polygon class="cls-1" points="398.59 58.07 354.71 2.56 341.03 2.56 341.03 92.1 357.91 92.1 357.91 31.72 404.99 92.23 404.99 92.1 415.48 92.1 415.48 2.43 398.59 2.43 398.59 58.07"/><path class="cls-1" d="M497.06,470.84h28.4V545h16.88V470.84h28.4V455.49H497.06Z" transform="translate(-71.35 -452.93)"/><path class="cls-1" d="M580.72,545h67V528.4H597.47V508.19H646V492.45H597.47V471.86h50.27V455.49h-67Z" transform="translate(-71.35 -452.93)"/><path class="cls-1" d="M701.85,508.31h22.9v15.87c-7,5.62-13.17,7.16-20.21,7.16-22.26,0-30.83-15.22-30.83-29.93,0-18.42,11.64-33,30.83-33a34.29,34.29,0,0,1,22.77,8.95l10.49-10.75a47.3,47.3,0,0,0-33.26-13.68c-31.59,0-47.33,23.28-47.33,48.48,0,23.53,13.69,45.66,47.33,45.66,15.73,0,26.86-6,35.69-16.11V493.22H701.85Z" transform="translate(-71.35 -452.93)"/><path class="cls-1" d="M888.49,455.49H870.07l-39.05,87L805.08,513.3c17-3.45,22.64-15.86,22.64-28.14,0-15.48-11.12-29.55-32.23-29.67-14.2,0-28.4-.13-42.6-.13V545h16.89V515.09H786L812.12,545h36.07l7.68-16.89h46.81L910.23,545h18.42ZM769.78,499.87V471.22h25.71c10.62,0,15.35,7.16,15.35,14.33s-4.6,14.32-15.35,14.32Zm92.87,12.54,16.63-38.12,16.63,38.12Z" transform="translate(-71.35 -452.93)"/></svg>