<?xml version="1.0" encoding="utf-8"?>
<!-- Generator: Adobe Illustrator 25.0.1, SVG Export Plug-In . SVG Version: 6.00 Build 0)  -->
<svg version="1.1" id="Layer_1" xmlns="http://www.w3.org/2000/svg" xmlns:xlink="http://www.w3.org/1999/xlink" x="0px" y="0px"
	 viewBox="0 0 2000 587.72" style="enable-background:new 0 0 2000 587.72;" xml:space="preserve">
<style type="text/css">
	.st0{fill:#E61528;}
	.st1{fill:#00519D;}
</style>
<g>
	<path class="st0" d="M315.26,410.01c48.87-13.27,72.37-48.63,70.57-87.67c-1.67-36.34-21.08-75.38-74.34-82.1
		c0-25.97,0-51.98,0-78.72c4.92,0.62,9.65,0.98,14.3,1.83c27.73,5.06,53.4,15.16,76.11,32.04c27.68,20.58,46.02,47.83,56.54,80.45
		c1.18,3.66,1.86,7.66,1.86,11.51c0.11,65.9,0.08,131.79,0.08,197.69c0,1.86,0,3.73,0,5.51c-17.37,2.58-40.01-10.64-60-34.83
		c-0.99,0.65-2.07,1.28-3.06,2.03c-19.57,14.87-40.66,26.51-65.36,30.3c-4.46,0.69-9.01,0.78-13.52,1.15
		c-2.19,0.18-3.21-0.66-3.2-2.99C315.27,460.89,315.26,435.57,315.26,410.01z"/>
	<g>
		<path class="st1" d="M133.1,100.89c19.21,2.14,37.18,7.53,52.47,19.98c11.12,9.05,18.76,20.47,22.8,34.12
			c1.12,3.78,2.87,4.64,6.42,4.62c22.3-0.12,44.59,0.06,66.89-0.16c4.48-0.04,5.68,1.28,5.64,5.7c-0.21,23.72-0.1,47.45-0.1,71.18
			c0,1.44,0,2.89,0,5.06c-2.1,0-3.79,0-5.48,0c-19.95,0-39.9,0.11-59.85-0.09c-3.93-0.04-4.99,1.18-4.96,4.96
			c0.29,32.65-0.11,65.32,0.85,97.95c0.43,14.46,7.22,27.26,16.5,38.42c12.3,14.78,28.52,22.48,47.29,25
			c4.36,0.59,5.8,1.95,5.75,6.47c-0.24,22.85-0.11,45.7-0.11,68.54c0,1.72,0,3.45,0,5.46c-14.21,1.85-27.55-0.06-40.66-3.79
			c-30.4-8.66-54.25-26.84-73.77-51.17c-14.86-18.52-26.02-39.19-34.99-61.06c-1.24-3.02-1.32-6.54-1.71-9.86
			c-0.25-2.17-0.09-4.39-0.1-6.59c-0.26-36.75-0.52-73.5-0.78-110.26c-0.14-20.5-0.24-41-0.41-61.5
			c-0.18-21.07-0.43-42.15-0.71-63.22c-0.02-1.32-0.64-2.62-0.98-3.93C133.1,111.43,133.1,106.16,133.1,100.89z"/>
		<g>
			<path class="st1" d="M1668.97,313.37c2.52-3.46,4.5-6.3,6.6-9.05c9.27-12.13,22.21-17.32,36.86-18.56
				c10.74-0.91,21.42,0.18,31.14,5.42c13.34,7.19,19.54,19.33,22,33.59c1.19,6.87,1.84,13.92,1.87,20.9
				c0.16,45.69,0.09,91.38,0.07,137.07c0,1.43-0.14,2.85-0.23,4.56c-12.96,0-25.66,0-39.03,0c0-1.74,0-3.44,0-5.13
				c0-45.25,0.02-90.5-0.02-135.75c-0.01-6.83-1.14-13.55-5.54-19.01c-11.02-13.67-34.19-10.15-41.69,6.18
				c-4.13,8.99-4.88,18.55-4.88,28.24c-0.01,39.98,0,79.96-0.01,119.94c0,5.82-0.01,5.83-5.63,5.83c-9.24,0.01-18.49-0.24-27.72,0.1
				c-4.46,0.16-5.69-1.16-5.68-5.62c0.16-43.05,0.24-86.11-0.05-129.16c-0.05-6.88-1.05-14.12-3.43-20.52
				c-4.03-10.84-14.57-15.02-26.81-12.32c-12.46,2.75-18.26,11.59-20.48,23.05c-1.49,7.69-2.34,15.63-2.39,23.46
				c-0.24,38.37-0.11,76.74-0.11,115.1c0,5.89-0.01,5.9-6.04,5.9c-9.24,0.01-18.49-0.18-27.72,0.09c-3.97,0.11-5.24-1.01-5.21-5.11
				c0.18-26.36,0.09-52.72,0.09-79.08c0-32.51,0.01-65.02-0.01-97.53c0-4.54-0.33-9.08-0.14-13.6c0.05-1.15,1.5-3.19,2.33-3.2
				c11.68-0.21,23.37-0.14,35.43-0.14c0.46,7.16,0.88,13.78,1.37,21.49c2.59-3.37,4.5-5.98,6.53-8.48
				c8.56-10.56,20.08-15.54,33.27-16.18c6.76-0.33,13.82,0.4,20.37,2.09c11.53,2.97,19.03,10.97,23.34,21.98
				C1667.76,310.82,1668.22,311.71,1668.97,313.37z"/>
			<path class="st1" d="M1180.85,487.36c-13.34,0-26.34,0-39.9,0c1.68-7.39,3.23-14.46,4.89-21.49
				c11.04-46.83,22.1-93.66,33.15-140.5c7.53-31.93,15.1-63.84,22.52-95.8c0.64-2.77,1.62-3.88,4.58-3.85
				c15.1,0.13,30.21,0.13,45.32,0c2.69-0.02,3.89,0.87,4.49,3.4c7.72,32.65,15.46,65.3,23.26,97.94
				c5.52,23.11,11.14,46.2,16.71,69.31c6.97,28.9,13.93,57.8,20.87,86.71c0.3,1.26,0.33,2.59,0.57,4.53c-4.88,0-9.52,0-14.16,0
				c-7.63,0-15.26-0.13-22.88,0.06c-3.28,0.08-4.83-0.69-5.57-4.29c-4.41-21.56-9.21-43.04-13.68-64.58
				c-0.58-2.8-1.69-3.55-4.34-3.54c-18.92,0.08-37.84,0.11-56.76-0.03c-3.21-0.02-4.2,1.16-4.81,4.13
				C1190.49,441.9,1185.69,464.41,1180.85,487.36z M1203.61,380.19c16.46,0,32.61,0,49.14,0c-8.25-39.35-16.4-78.19-24.54-117.03
				c-0.28,0.05-0.56,0.1-0.84,0.15C1219.46,302.22,1211.55,341.14,1203.61,380.19z"/>
			<path class="st1" d="M980.39,487.36c0-91.87,0-183.05,0-274.53c13.19,0,26.15,0,39.6,0c0,31.93,0,63.62,0,96.58
				c2.91-3.69,4.89-6.47,7.15-9.01c11.08-12.47,25.72-15.38,41.45-14.95c13.22,0.37,24.98,4.31,33.84,14.8
				c7.05,8.34,10.48,18.24,11.84,28.78c1.08,8.37,1.58,16.87,1.61,25.32c0.15,42.46,0.07,84.93,0.07,127.39c0,5.83,0,5.84-6.03,5.84
				c-9.53,0-19.07,0.01-28.6-0.01c-1.57,0-3.14-0.14-5.24-0.24c0-2.07,0-3.78,0-5.49c-0.04-44.51,0.08-89.03-0.3-133.54
				c-0.05-6.06-1.61-12.6-4.25-18.05c-5.13-10.58-15.38-11.6-25.7-10.85c-12.29,0.89-21.01,9.46-23.71,23.83
				c-1.37,7.27-1.93,14.79-1.96,22.2c-0.19,38.95-0.15,77.9,0,116.85c0.02,4.17-1.02,5.55-5.33,5.41
				c-9.82-0.32-19.65-0.09-29.47-0.11C983.77,487.58,982.2,487.45,980.39,487.36z"/>
			<path class="st1" d="M1894.42,368.34c0-11.36,0.61-22.07-0.16-32.69c-0.9-12.42-9.63-19.63-22.11-19.61
				c-2.78,0-5.62-0.15-8.31,0.36c-12.47,2.4-18.04,9.05-19.58,23.77c-0.34,3.22-1.19,4.25-4.42,4.19
				c-9.82-0.18-19.65-0.05-29.48-0.08c-1.14,0-2.27-0.19-3.94-0.33c0.2-11.33,2.58-21.84,8.04-31.54
				c8.12-14.42,21.22-21.81,36.94-24.91c16.01-3.16,31.99-2.71,47.78,1.76c18.6,5.26,31.42,20.59,33.69,40.64
				c0.51,4.48,0.74,9.02,0.75,13.54c0.06,29.58-0.07,59.17,0.07,88.75c0.09,18.26,0.54,36.52,0.84,55.4c-5.09,0-10.46,0-15.83,0
				c-4.99,0-9.98-0.15-14.96,0.05c-3.23,0.14-4.8-0.73-5.01-4.26c-0.28-4.87-1.14-9.7-1.66-13.86c-5.1,4.67-9.73,10.32-15.59,14.03
				c-16.5,10.43-47.47,10.97-64.42-4.18c-8.62-7.71-13.57-17.49-16.17-28.53c-3.86-16.41-3.1-32.54,4.42-47.85
				c9.21-18.76,25.61-27.95,45.21-31.95c8.53-1.74,17.37-2.06,26.1-2.63C1882.46,368.03,1888.31,368.34,1894.42,368.34z
				 M1895.63,397.57c-13.4-1.06-26.23-1.9-38.62,2.74c-3.34,1.25-6.54,3.33-9.28,5.65c-9.96,8.45-11.18,19.59-9.03,31.57
				c2.14,11.93,10.26,20.05,22,21.12c13.27,1.2,24.32-3.19,29.69-15.36C1896.74,428.86,1895.45,413.58,1895.63,397.57z"/>
			<path class="st1" d="M782.59,428.98c-0.47,10.7-3.45,20.12-8.14,28.93c-11.97,22.47-31.53,32.33-56.38,33.04
				c-11.19,0.32-22.15-0.5-32.77-4.68c-16.21-6.39-26.45-18.32-32.77-34.05c-6.63-16.49-8.91-33.81-9.16-51.41
				c-0.16-11.39-0.42-22.86,0.64-34.18c2.12-22.66,7.2-44.43,23.28-61.99c7.97-8.7,17.85-14.32,29.18-16.91
				c15.54-3.57,31.14-3.21,46.25,2.35c20.05,7.38,30.6,23,36.3,42.68c5.74,19.81,5.8,40.1,5.3,60.45c-0.09,3.62-1.54,4.54-5.07,4.53
				c-30.66-0.14-61.32-0.02-91.98-0.16c-3.77-0.02-5.14,0.87-5.03,4.85c0.38,13.63,0.96,27.2,6.99,39.78
				c5.56,11.6,14.95,16.72,27.14,16.2c15.09-0.65,23.08-9.27,26.85-20.62c0.91-2.74,0.71-6.88,2.51-8.03
				c2.34-1.49,6.18-0.72,9.38-0.75C764.03,428.94,772.96,428.98,782.59,428.98z M745.38,368.35c-0.08-11.92-0.38-23.2-4.9-34.02
				c-6.93-16.57-25.99-20.18-38.99-12.91c-3.93,2.2-7.69,5.64-10.1,9.42c-7.2,11.32-8.45,24.13-8.3,37.5
				C704.08,368.35,724.4,368.35,745.38,368.35z"/>
			<path class="st1" d="M562.25,260.64c-19.15,0-37.57,0-56.46,0c0-11.66,0-22.95,0-34.55c51.05,0,102.01,0,153.34,0
				c0,11.29,0,22.48,0,34.21c-18.52,0-37.05,0-56.34,0c0,75.97,0,151.41,0,227c-13.88,0-27.01,0-40.54,0
				C562.25,411.77,562.25,336.55,562.25,260.64z"/>
			<path class="st1" d="M949.76,350.98c-14.22,0-26.94,0-40.06,0c-0.64-3.81-1.19-7.52-1.88-11.2
				c-2.27-12.05-8.97-19.23-19.76-21.26c-11.22-2.12-22.04,2.73-26.69,13.59c-3.52,8.21-6.37,17.09-7.35,25.91
				c-1.55,13.89-1.9,28-1.63,41.99c0.26,13.38,1.35,26.87,6.6,39.49c1.55,3.73,3.69,7.31,6.11,10.56
				c9.64,12.94,35.21,11.17,41.81-8.65c1.69-5.09,2.38-10.5,3.7-15.73c0.26-1.02,1.29-2.64,1.99-2.65
				c11.98-0.16,23.97-0.12,36.33-0.12c-0.03,10.54-2.02,20.2-5.62,29.45c-9.07,23.33-26.64,35.35-51.26,37.95
				c-13.93,1.47-27.55,0.61-40.39-5.26c-16.87-7.71-26.29-21.79-31.81-38.85c-4.93-15.25-7.16-30.97-7.27-46.97
				c-0.11-16.36-0.57-32.74,2.84-48.92c2.94-13.98,7.17-27.43,15.52-39.22c13.92-19.66,33.74-26.51,56.95-25.69
				c11.54,0.41,22.64,2.74,32.69,8.71c13.9,8.26,21.79,20.93,25.6,36.25C947.8,336.93,948.52,343.71,949.76,350.98z"/>
			<path class="st1" d="M1383.36,487.36c-1.86,0.09-3.43,0.23-5,0.23c-9.83,0.02-19.66-0.22-29.48,0.11
				c-4.39,0.15-5.28-1.37-5.26-5.47c0.15-37.34,0.09-74.69,0.09-112.04c0-25.34,0.01-50.67,0.02-76.01c0-1.57,0-3.14,0-4.96
				c12.59,0,24.69,0,38.1,0c0,10.54,0,20.94,0,31.35c0.57,0.2,1.15,0.39,1.72,0.59c8.92-23.5,26.33-34.47,51.04-35.59
				c0,14.95,0,29.48,0,43.49c-7.51,1.19-14.82,1.75-21.79,3.59c-17.01,4.48-25.54,16.71-28.16,33.35c-0.99,6.3-0.97,12.79-0.99,19.2
				c-0.09,32.51-0.04,65.02-0.05,97.54C1383.6,484.16,1383.46,485.58,1383.36,487.36z"/>
			<path class="st1" d="M1500.21,388.3c0,31.32-0.07,62.64,0.09,93.96c0.02,4.18-1.07,5.58-5.38,5.44
				c-9.66-0.31-19.35-0.22-29.02-0.03c-3.47,0.07-4.92-0.78-4.91-4.59c0.1-63.22,0.09-126.45,0.01-189.67
				c0-3.39,1.02-4.58,4.52-4.51c9.96,0.21,19.94,0.26,29.9-0.02c4.02-0.11,4.88,1.32,4.86,5.03
				C1500.16,325.37,1500.21,356.84,1500.21,388.3z"/>
		</g>
	</g>
	<path class="st0" d="M1459.2,213.77c12.93,0,25.62,0,38.74,0c0,12.83,0,25.7,0,38.83c-12.91,0-25.71,0-38.74,0
		C1459.2,239.56,1459.2,226.78,1459.2,213.77z"/>
</g>
</svg>
